<?xml version="1.0" encoding="UTF-8"?>
<svg width="221px" height="169px" viewBox="0 0 221 169" version="1.1" xmlns="http://www.w3.org/2000/svg" xmlns:xlink="http://www.w3.org/1999/xlink">
    <!-- Generator: Sketch 48.2 (47327) - http://www.bohemiancoding.com/sketch -->
    <title>logo</title>
    <desc>Created with Sketch.</desc>
    <defs></defs>
    <g id="ASAN-Ödəniş" stroke="none" stroke-width="1" fill="none" fill-rule="evenodd" transform="translate(-886.000000, -964.000000)">
        <g id="logo" transform="translate(886.000000, 964.000000)" fill="#ECF3F9" fill-rule="nonzero">
            <path d="M177.106186,20.4080438 C178.211678,20.4080438 179.219937,20.6783584 180.202832,21.2439398 C180.333884,21.3229549 180.471278,21.3853352 180.598103,21.4414774 L180.832729,21.6161423 L181.268162,21.9425992 C181.301982,21.977948 181.329461,22.0070588 181.35694,22.0424077 C181.551405,22.2607387 181.74587,22.4769904 181.929766,22.7036389 C182.779494,23.7557866 183.30159,25.005472 183.527762,26.5233926 C184.2253,31.2809302 184.5635,36.2172914 184.893245,40.9935431 L184.931292,41.4925855 L185.047549,43.2059644 C185.184943,45.2998632 185.332905,47.466539 185.535825,49.6186594 C185.567532,49.9201642 185.546394,50.1031464 185.258924,50.4711902 C180.211287,56.9025992 158.147954,85.1442408 155.516334,88.5356498 C154.064187,88.7227907 152.618381,88.9140903 151.168348,89.0991518 C150.337644,89.2051984 149.513281,89.3154036 148.686804,89.4235294 C148.614937,89.2571819 148.545183,89.0949932 148.475429,88.9286457 C147.8561,87.4876607 147.228316,85.9967715 146.45257,84.5204378 C145.29212,82.3100958 143.757537,80.6258276 142.005237,78.9249248 C143.396086,77.0202462 146.321517,73.0071135 149.644334,68.4387962 C156.063795,59.6286183 164.856999,47.5621888 165.389665,46.8718468 C166.425403,45.528591 166.304919,43.6363885 165.102194,42.42829 C164.432135,41.7525034 163.535905,41.4031737 162.624878,41.4031737 C161.918886,41.4031737 161.202324,41.6173461 160.593564,42.0519289 C159.974235,42.494829 159.382384,43.0063475 158.82224,43.5781669 C157.938692,44.4826813 153.072838,50.2029549 145.926246,58.6596443 C144.68336,50.7519015 142.912037,39.4984952 142.516765,37.0178386 C145.628207,33.0275787 148.729079,29.0290014 151.821497,25.0304241 C158.198684,23.8597538 173.98629,20.875896 175.470143,20.5743912 C176.047197,20.464186 176.590431,20.4080438 177.106186,20.4080438 Z M177.106186,17 C176.343122,17 175.567376,17.0852531 174.778947,17.2453625 C173.316231,17.5406293 157.592037,20.5099316 151.195827,21.6868399 C150.350326,21.8407114 149.667585,22.2025171 149.143375,22.8783037 C146.002341,26.9330233 142.859193,30.9856635 139.705476,35.0299863 C139.138991,35.7515185 138.931844,36.5291929 139.073465,37.4129138 C139.511011,40.1347743 142.396281,58.4662654 143.406654,64.9122298 C143.453157,65.2449248 143.506001,65.567223 143.878021,65.6815869 C143.960457,65.7086183 144.038666,65.7210944 144.110533,65.7210944 C144.4128,65.7210944 144.634744,65.5173187 144.839778,65.2844323 C146.156644,63.7353215 160.001713,47.2918741 161.327035,45.9361423 C161.72442,45.5265116 162.157739,45.1501505 162.629106,44.8091382 C161.815312,45.8612859 140.994865,74.4772093 138.564051,77.7916826 C137.739688,78.9166074 137.811556,79.6610123 138.82827,80.6320657 C140.555204,82.2768263 142.244091,83.9382216 143.366493,86.0799453 C144.368411,87.9846238 145.137816,89.9745554 146.000227,91.9270588 C146.35111,92.71513 146.6724,93 147.361482,93 C147.507331,93 147.676431,92.9833653 147.862441,92.9584131 C150.637797,92.5986867 153.419493,92.2327223 156.194848,91.8792339 C156.998073,91.7711081 157.62163,91.4176197 158.124702,90.7709439 C159.929846,88.4358413 182.718195,59.2709713 187.992004,52.5463748 C188.755068,51.5690834 189.095382,50.5439672 188.977012,49.2901231 C188.721248,46.6140082 188.560603,43.9316553 188.37882,41.2555404 C188.02371,36.1694665 187.68551,31.0813133 186.949925,26.0326676 C186.649772,24.0115458 185.931097,22.177565 184.63114,20.5743912 C184.320418,20.185554 183.97165,19.8154309 183.646132,19.4390698 C183.162083,19.077264 182.680148,18.7154583 182.191871,18.3557319 C182.105207,18.3349384 182.001634,18.3349384 181.93188,18.2933516 C180.397297,17.405472 178.782391,17 177.106186,17 Z" id="Shape"></path>
            <path d="M108.495288,3.39038074 C109.070253,3.39038074 109.690884,3.46075494 110.336423,3.60357318 C110.629096,3.66566806 110.938373,3.82090528 111.274635,4.07549431 C114.325897,6.38542404 124.471864,14.1431451 126.543401,15.8176371 C128.027519,17.0160684 129.459744,18.429762 130.734217,19.6778692 C130.769503,19.7171959 130.906499,19.9138297 131.024813,20.8638815 C131.078781,21.3047552 131.313334,23.2317664 131.645444,26.0570837 C135.46056,58.1187429 136.348955,65.085789 136.546145,65.9302794 C136.647854,66.3628738 136.660308,66.8803312 136.056283,67.7372406 C135.493771,68.5361948 134.763128,69.3041015 133.993048,70.1196144 C133.627727,70.500463 133.266557,70.8833814 132.911614,71.2725094 L132.782921,71.4173975 C132.639699,71.5767743 132.490249,71.7402909 132.344951,71.9038074 C129.289537,70.3203878 126.126188,69.8795141 123.595923,69.68702 C122.570533,69.6062966 121.559672,69.5669699 120.575796,69.5317828 C119.521346,62.9787025 114.927847,34.8021134 114.595737,32.8337055 C114.53139,32.3742034 114.340427,30.9749986 112.893672,29.8552209 C112.287571,29.3832997 111.548626,29.1411297 110.80968,29.1411297 C110.267926,29.1411297 109.724095,29.2694591 109.228006,29.5302576 C108.044863,30.1491367 107.337053,31.4034533 107.413854,32.7302141 L107.469897,33.7299417 C107.509335,34.4419631 107.546698,35.1084482 107.596514,35.7728634 L108.015803,41.435917 C108.339611,45.8073969 108.626056,49.6945367 108.844003,52.629555 C102.83696,48.3098208 92.9110165,41.1875374 91.2442385,40.0098045 C91.2442385,40.0056648 91.2442385,40.003595 91.2442385,39.9994553 C90.9162796,37.6046626 90.5883208,35.2119396 90.2582863,32.8171469 L89.4259351,26.7484068 C89.3491346,26.1916226 89.4695246,25.7548886 89.8410729,25.2332916 C90.4409469,24.390871 91.5057752,22.8654066 92.8549729,20.9342557 C96.4044007,15.8466147 101.76798,8.1571981 103.6361,5.87210632 C105.012282,4.17691595 106.55867,3.39038074 108.495288,3.39038074 Z M108.495288,0 C105.556112,0 103.03415,1.23361839 100.995824,3.72776295 C98.3327155,6.98774443 89.2744098,20.1787679 87.0679527,23.2648837 C86.212769,24.4591753 85.8557505,25.7548886 86.0529409,27.2037693 C86.659042,31.6187156 87.2692945,36.0357318 87.8712443,40.452748 C87.9978613,41.3821014 88.3818637,42.1417289 89.166474,42.6943733 C90.8519333,43.8783158 109.902604,57.5598889 111.363889,58.6258511 C111.556928,58.7665995 111.752043,58.8535323 111.955461,58.8535323 C112.073775,58.8535323 112.194165,58.8245547 112.322858,58.7583202 C112.69233,58.5678959 112.681952,58.226374 112.650816,57.8641538 C112.57194,56.9534288 111.471825,42.0568658 110.986114,35.5203442 C110.915541,34.5723623 110.871951,33.6243804 110.807605,32.5273708 C111.210288,32.8378452 111.197834,33.1296912 111.239348,33.3884198 C111.596367,35.4851571 116.652744,66.5408791 117.356403,70.9434065 C117.576426,72.3343319 118.157619,72.8290212 119.560784,72.8849066 C120.8145,72.9325127 122.08067,72.9676998 123.334386,73.0670516 C126.491509,73.3071518 129.540696,73.9156817 132.214183,75.7805981 C132.423827,75.927556 132.633472,76 132.834814,76 C133.133713,76 133.411855,75.8447628 133.667165,75.5425677 C134.242131,74.8636636 134.837853,74.2013182 135.439803,73.5410425 C136.587659,72.272237 137.841375,71.0965739 138.833554,69.68702 C139.811203,68.3085135 140.247098,66.8140966 139.858944,65.1561632 C139.510229,63.6824446 134.678025,22.6956806 134.401959,20.4499156 C134.252509,19.2866714 133.997199,18.1275669 133.12541,17.264448 C131.693185,15.8548941 130.250581,14.44741 128.689663,13.1806743 C126.570385,11.4689253 116.306104,3.62841113 113.333718,1.3743668 C112.652892,0.861049077 111.901493,0.469851299 111.062914,0.289776132 C110.172444,0.0952121575 109.31726,0 108.495288,0 Z" id="Shape"></path>
            <path d="M68.2744649,36.4359117 C68.4387906,36.4359117 68.6305039,36.4547788 68.9528351,36.7000513 C76.4001606,42.3287413 100.84677,60.7304698 106.40435,64.7785146 C106.975276,65.1956875 107.032158,65.4053222 107.051119,65.8979635 C107.110108,67.6442201 107.27022,69.3674168 107.424012,71.0319158 C107.432439,71.1220587 107.442973,71.2142979 107.449293,71.3065372 C107.202804,71.4344143 106.956316,71.5601951 106.709827,71.6901686 C105.730193,72.2016771 104.805334,72.6817404 103.878369,73.0947206 C101.114326,74.3168906 98.9991591,76.2224694 97.1346944,77.9058355 L96.9366608,78.084025 C92.2112433,74.809532 70.3496037,59.7871139 66.5026967,57.1499102 C65.6368266,56.5587405 64.7056476,56.2400958 63.6628113,56.1730127 C63.5890754,56.1709164 63.5174463,56.1688201 63.4458171,56.1688201 C62.0890766,56.1688201 60.8503136,56.961239 60.2941343,58.2064687 C59.7063538,59.5166852 60.0012974,61.0533071 61.0293865,62.057457 C61.1136561,62.1371182 61.1852852,62.214683 61.2548077,62.2817661 C61.4570547,62.4893044 61.6887961,62.7261915 61.9858464,62.965175 C63.5174463,64.2166938 69.3151944,68.9628219 74.0363984,72.8389664 L46.4381062,72.8389664 C46.0631065,72.570634 45.6881068,72.3023017 45.3152138,72.0423548 C45.0750455,71.8704544 44.8285569,71.7090357 44.5799616,71.547617 C44.2197091,71.3107299 43.8784172,71.0906135 43.6867039,70.906135 C43.4296816,70.6608625 43.0715358,70.2290151 42.8987832,69.3003337 C42.317323,66.1411397 39.2246288,49.5380765 38.624208,46.9260289 C38.2555285,45.328613 38.4851631,43.875845 39.344713,42.3580902 C39.4205557,42.2218277 39.4858646,42.0897579 39.5385331,41.9681698 L39.9493474,41.4294087 L40.438111,40.7858304 L40.4591784,40.7690596 C40.6508917,40.607641 40.8426051,40.444126 41.0364251,40.2889963 C42.0876883,39.4441687 42.8060866,39.3372551 43.3159177,39.3372551 L43.3749064,39.3372551 C43.3833333,39.3372551 43.4149344,39.3372551 43.4212547,39.3372551 C43.8552431,39.3372551 44.3018719,39.2974245 44.7569277,39.2177633 C49.4170363,38.4064773 60.0244716,37.2954137 65.1206753,36.7608454 C66.6585954,36.5994267 67.674044,36.492513 68.0722179,36.4442971 C68.1459538,36.4401044 68.2133694,36.4359117 68.2744649,36.4359117 Z M68.2744649,33 C68.0680044,33 67.8594371,33.0125781 67.6466564,33.0398306 C65.9844387,33.2473689 50.2871199,34.773509 44.1649338,35.838453 C43.920552,35.8803799 43.6719567,35.9055361 43.4233614,35.9055361 C43.4170412,35.9055361 43.4086142,35.9055361 43.4001873,35.9055361 C43.3727996,35.9055361 43.345412,35.9055361 43.3180244,35.9055361 C41.6157786,35.9055361 40.1726618,36.5742706 38.8706965,37.6203474 C38.5504721,37.878198 38.2386746,38.1486267 37.9226636,38.4127663 C37.4423269,39.0395739 36.964097,39.6663814 36.485867,40.2910927 C36.437412,40.4189698 36.4058109,40.553136 36.3383952,40.6705314 C35.0869917,42.8758877 34.6803909,45.1902541 35.2576377,47.6932917 C35.7990698,50.0370069 38.5715395,64.8686575 39.5048252,69.9229486 C39.7513138,71.2541285 40.3011729,72.4322752 41.2934474,73.3819201 C41.9001885,73.9647044 42.6396542,74.3630102 43.3201311,74.8430735 C43.9921812,75.3147514 44.657911,75.7969111 45.3278542,76.2727817 L83.175436,76.2727817 C83.1796495,76.0107384 83.021644,75.832549 82.8130767,75.6606486 C82.4570377,75.3671601 82.1283863,75.0359374 81.7702405,74.7403525 C78.2646254,71.8452982 66.5279775,62.2335501 64.1726424,60.3112005 C63.940901,60.1246257 63.7428674,59.8961239 63.4437104,59.6026354 C63.9556482,59.6361769 64.2674457,59.7913066 64.5497488,59.9841704 C68.7611218,62.8708394 91.2105418,78.295756 95.2302015,81.092282 C96.0918581,81.6918371 96.6164363,82 97.1052,82 C97.6529524,82 98.1564632,81.6142723 99.0370805,80.8218533 C100.960534,79.0923676 102.843959,77.3083768 105.27303,76.2329511 C106.905754,75.5097116 108.464741,74.6229571 110.065864,73.8305382 C110.758981,73.4888337 111.058138,72.987807 110.990722,72.2163515 C110.801116,70.0759819 110.565161,67.9314195 110.493532,65.7805682 C110.434543,64.1286472 109.77092,62.9798494 108.437354,62.0050483 C102.749156,57.8647643 77.8517043,39.119235 71.0342941,33.9643193 C70.1894914,33.320741 69.2814866,33 68.2744649,33 Z" id="Shape"></path>
            <path d="M97.9939536,105.64212 C97.9939536,108.988093 97.9960692,112.33197 97.991838,115.677943 C97.991838,116.860355 97.799317,117.116125 96.6251504,117.212563 C91.5180549,117.650726 86.4151905,118.208388 81.2742451,117.921171 C78.4266268,117.766032 75.6192051,117.392859 72.9704546,116.254474 C66.6680364,113.552118 64.9395786,104.866425 69.7991472,100.317075 C71.593189,98.6357025 73.8442038,97.9753131 76.1904213,97.5623076 C80.3751085,96.8285416 84.5746051,96.8620851 88.7804485,97.3526602 C90.7035429,97.5748865 90.9722261,97.2918624 90.5850685,95.4322896 C89.944037,92.358858 88.0971048,90.4783205 84.965994,89.9709736 C81.7354492,89.451048 78.4985577,89.4342762 75.3039784,90.2707695 C74.3413734,90.5202499 73.4295432,90.9018083 72.572719,91.3965763 C71.9803466,91.7362051 71.5233737,91.5978378 71.0896726,91.130324 C69.7060601,89.6397307 69.8076096,87.4782655 71.3795119,86.0820135 C72.7017715,84.9121808 74.3392578,84.4509564 76.0550219,84.2874314 C79.1163174,84.0002144 82.1839597,83.8304 85.2473708,84.2601772 C88.7444831,84.7486558 92.0533055,85.6878763 94.6110846,88.3168553 C96.6357285,90.388172 97.689305,92.8913625 97.8754791,95.7572431 C98.0912719,99.048708 97.9516413,102.344366 97.9939536,105.64212 Z M85.9730269,101.797186 C83.6437343,101.755257 81.6910213,101.736388 79.7573488,102.063438 C78.2806493,102.308726 76.7954873,102.595943 75.6340144,103.627408 C72.9471829,106.015293 73.9330597,110.944104 77.3772815,112.254401 C81.3588697,113.778537 85.4504699,113.315217 89.5272608,112.740783 C90.3460039,112.62338 90.7902832,111.992341 90.8495204,111.193584 C91.0505038,108.482843 91.0589663,105.767909 90.8664453,103.057167 C90.8177862,102.373716 90.4179348,101.996351 89.7028568,101.889431 C88.3361693,101.686073 86.9652505,101.857984 85.9730269,101.797186 Z" id="Shape"></path>
            <path d="M30.9936625,99.9827164 C30.9936625,105.614738 30.9915538,110.515791 30.9936625,115.416844 C30.9936625,116.918577 30.8861183,117.098701 29.4268913,117.224369 C24.3111622,117.662113 19.1975417,118.229713 14.0480732,117.902976 C11.2898812,117.73123 8.56121114,117.387737 6.00123784,116.242064 C0.49118,113.791538 -1.64283398,107.258895 1.37262056,102.087656 C2.80232558,99.6371293 5.11768857,98.5040227 7.75779283,97.8945327 C12.3695404,96.8347324 17.0213535,96.6671751 21.6942537,97.4609781 C23.31796,97.7353532 24.0538996,96.9750617 23.6574622,95.3581332 C22.9805665,92.6101924 21.365295,90.6958496 18.5016676,90.1387213 C14.7629257,89.3993745 11.015749,89.3093124 7.34870319,90.6015985 C6.73296003,90.8194231 6.14252138,91.1126485 5.56473498,91.4247241 C4.99749213,91.7263273 4.5673154,91.6048482 4.14768222,91.1587268 C2.71586849,89.648616 2.88667396,87.3174742 4.55466315,85.9518817 C5.53732176,85.1497008 6.69922067,84.7224296 7.93914184,84.5339275 C12.3990624,83.8553202 16.8505481,83.6772905 21.2598596,84.8795146 C23.9969644,85.6251449 26.4599371,86.8378413 28.2902969,89.078921 C29.9076771,91.0665702 30.6541602,93.3893342 30.837618,95.8943167 C30.9578144,97.4944895 31.0210757,99.1072292 30.9936625,99.9827164 Z M23.9843122,107.210722 C23.9864209,107.210722 23.9885296,107.210722 23.9885296,107.210722 C23.9885296,105.853507 23.9969644,104.498387 23.9864209,103.141173 C23.9779861,102.098128 23.6595709,101.781864 22.6241946,101.788147 C20.0747648,101.811186 17.5232264,101.844698 14.9716879,101.878209 C13.7844845,101.897059 12.5993898,102.003877 11.4311647,102.225891 C7.39931222,103.002938 5.66595304,107.474625 8.16477376,110.660309 C9.33089009,112.149475 10.9841183,112.698226 12.7807388,112.960034 C15.9859772,113.433384 19.1785633,113.295149 22.3732582,112.828083 C23.7439193,112.624919 23.9969644,112.337977 23.9864209,110.982857 C23.9779861,109.721988 23.9843122,108.465308 23.9843122,107.210722 Z" id="Shape"></path>
            <path d="M48.4938821,84.0177144 C51.3901806,83.9735645 54.2759164,84.0702737 57.0750378,84.9133255 C58.4904426,85.3422097 59.8572589,85.8699055 60.9600071,86.9021709 C62.3923123,88.2455875 62.3247109,90.6927503 60.8395921,91.9478673 C60.4022954,92.317885 60.0156997,92.3872634 59.4791134,92.0634978 C55.7356846,89.8265724 51.6521361,88.9751111 47.3171948,89.2421126 C45.7496868,89.3451289 44.1821788,89.4145072 42.7033976,90.0515264 C40.9182975,90.8273022 40.1282059,92.2695305 40.5211392,94.130131 C40.7450689,95.1918296 41.4506587,95.8414631 42.3949661,96.2682449 C43.8209337,96.9094688 45.3504159,97.1344228 46.8841232,97.3320459 C50.3719341,97.7882609 53.8956584,98.0384434 57.2672794,99.1421895 C58.9192892,99.6846019 60.4614466,100.428842 61.7141855,101.665038 C64.5513328,104.461194 64.7858252,109.675081 62.2021833,113.087233 C60.2966682,115.603774 57.6010614,116.894631 54.6012482,117.439146 C47.4101468,118.757334 40.4831134,117.706148 33.8243731,114.767029 C32.8842908,114.352862 32.8061267,113.987049 33.2983496,113.116666 C33.7187459,112.370324 34.0926663,111.600855 34.5151752,110.850308 C35.1552762,109.712924 35.6982001,109.502686 36.8769999,110.066122 C41.0471628,112.052865 45.4475929,112.750853 50.0318145,112.475442 C51.2972286,112.401859 52.5541926,112.229465 53.7752433,111.880471 C55.5307678,111.371696 56.322972,110.423526 56.3800107,108.783674 C56.4497246,106.805341 55.7969484,105.73313 54.0245236,105.096111 C52.0788701,104.398123 50.0275894,104.206807 47.988984,103.99657 C45.1159234,103.695931 42.2365253,103.437339 39.4881049,102.461837 C35.2883665,100.971254 33.0701947,97.8429227 33.2434234,93.4741905 C33.3575008,90.5203557 34.8299443,88.2624065 37.215007,86.5805077 C39.6972468,84.8250258 42.5491819,84.206928 45.5236445,84.032431 C46.5144279,83.9693598 47.5052113,84.0177144 48.4938821,84.0177144 Z" id="Shape"></path>
            <path d="M38.0082842,151.05661 C37.9814235,148.537782 38.0578732,144.056315 38.1508525,139.568455 C38.2190373,136.376235 38.6302125,133.224504 40.3348334,130.458482 C43.2192586,125.778833 47.3661363,123.22804 52.7775328,123.017072 C56.0834642,122.891344 59.2819528,123.445401 62.1829076,125.167239 C66.4847509,127.707377 69.0055236,131.632656 69.7720865,136.621299 C70.6233638,142.149081 69.0840395,147.026912 65.2532914,151.050217 C60.8274758,155.706425 51.5378085,157.534813 45.3515843,151.350686 C45.198685,151.199386 45.0664478,150.884 44.8370988,150.962847 C44.5974187,151.045955 44.5829553,151.374127 44.5354325,151.627715 C44.4259235,152.209474 44.4693139,152.793365 44.4817111,153.379387 C44.5684918,157.487931 44.4879098,161.596476 44.6346105,165.707151 C44.6986629,167.45243 43.5973745,168.596771 41.6530736,168.933467 C40.5559176,169.120994 39.533145,168.907895 38.5640939,168.347445 C38.1611835,168.115167 37.9979531,167.810436 38.0000194,167.326702 C38.0124166,162.559682 38.0082842,157.790531 38.0082842,151.05661 Z M44.6676698,138.735238 C44.6118822,140.821476 44.9734684,142.892796 45.9817775,144.82134 C48.2959295,149.253794 53.6618694,150.21487 57.5194781,148.591057 C61.1146786,147.071663 62.8089684,144.079756 63.1808857,140.175786 C63.722232,134.477525 60.2076136,129.900163 54.7404296,129.158579 C49.6286331,128.468139 44.2730242,132.280476 44.6676698,138.735238 Z" id="Shape"></path>
            <path d="M103.994639,143.369968 C103.994639,146.514443 103.996721,149.667516 103.994639,152.811992 C103.994639,153.931795 103.817684,154.163923 102.758033,154.256344 C98.1467828,154.666867 93.5355328,155.195603 88.8930554,154.926936 C86.3199154,154.776483 83.7863302,154.423992 81.3922275,153.357923 C75.7005085,150.813111 74.1391372,142.643493 78.5276316,138.357721 C80.1514577,136.775811 82.1833223,136.154654 84.3047055,135.763475 C88.0811423,135.075688 91.8783974,135.10363 95.6756525,135.565736 C97.4118974,135.776371 97.6554713,135.512003 97.3057242,133.760296 C96.7269758,130.867292 95.0573494,129.096241 92.2302264,128.614791 C89.3115029,128.122593 86.3886158,128.118294 83.5011197,128.898503 C82.6329973,129.134929 81.8085932,129.48742 81.034153,129.958124 C80.4991231,130.274076 80.0869211,130.149415 79.6955373,129.708801 C78.4443584,128.303137 78.5359589,126.267718 79.9557659,124.960923 C81.1507354,123.854016 82.6288336,123.422 84.1797958,123.269397 C86.944464,123.00073 89.7174595,122.84168 92.4821276,123.241456 C95.6402614,123.701413 98.629767,124.584789 100.938515,127.050075 C102.76636,129.010268 103.717756,131.363789 103.886384,134.059053 C104.082076,137.160542 103.957166,140.26418 103.994639,143.369968 Z M93.1358218,139.74834 C91.0352569,139.709652 89.2698663,139.692458 87.5211304,139.995514 C86.1887602,140.229791 84.8459809,140.502756 83.7967394,141.474255 C81.3693274,143.716011 82.26035,148.356423 85.3706017,149.59014 C88.970083,151.025895 92.6632467,150.589581 96.3460012,150.04365 C97.0871322,149.938332 97.4868432,149.342967 97.5409708,148.5907 C97.7220898,146.037291 97.7304172,143.486032 97.5555436,140.934773 C97.5118252,140.289972 97.149587,139.933183 96.5042202,139.832164 C95.2717778,139.647322 94.0330898,139.810671 93.1358218,139.74834 Z" id="Shape"></path>
            <path d="M111.537924,106.721464 C111.537924,109.554862 111.542185,112.38412 111.537924,115.217518 C111.537924,116.616625 111.24392,116.902241 109.827163,116.813245 C108.695888,116.747015 107.585917,116.97468 106.463163,116.993307 C104.65014,117.018143 103.898087,116.415865 104.011001,114.654564 C104.349745,109.391357 103.993957,104.12815 104.18996,98.8649424 C104.268787,96.8387215 104.403006,94.7980128 105.082624,92.8442308 C106.537729,88.673817 109.656726,86.2688438 113.86865,85.0435907 C118.447013,83.7148534 123.025376,83.4851185 127.516391,85.3581827 C130.850564,86.7428015 133.624426,88.758674 135.047575,92.1715834 C135.601495,93.5023904 135.814541,94.8932182 135.872064,96.3150914 C135.916803,97.2816339 135.916803,98.2523158 135.921064,99.2188584 C135.950891,104.58141 135.970065,109.946032 135.999891,115.306514 C136.006283,116.552464 135.733584,116.798757 134.431871,116.815314 C133.436945,116.836011 132.442019,116.937426 131.453485,116.989168 C129.188804,117.103 128.38988,116.331008 128.585883,114.135073 C129.069498,108.726988 128.869234,103.312694 128.720102,97.9087483 C128.600796,93.6596864 126.340376,91.2381558 122.030451,90.4309789 C119.316242,89.9218366 116.795905,90.3750974 114.51418,91.9190819 C112.281455,93.4299515 111.586925,95.6693499 111.540055,98.1467619 C111.486793,101.004996 111.523011,103.86323 111.523011,106.717325 C111.533663,106.721464 111.537924,106.721464 111.537924,106.721464 Z" id="Shape"></path>
            <path d="M133.97564,125.161985 C134.07511,123.544948 133.419417,122.988638 131.831948,123.013547 C130.851452,123.026002 129.879077,123.239808 128.888431,123.175458 C127.652154,123.094503 127.398402,123.353976 127.394342,124.647191 C127.390282,127.254378 127.394342,129.861565 127.394342,132.468752 C127.394342,132.468752 127.398402,132.468752 127.402462,132.468752 C127.402462,135.100848 127.439003,137.726718 127.390282,140.358814 C127.347652,142.644255 126.742709,144.697207 124.789838,146.094211 C122.792306,147.514048 120.589744,147.931281 118.21463,147.458002 C114.450989,146.719022 112.467668,144.485477 112.366167,140.580923 C112.234216,135.605264 112.063695,130.619227 112.483908,125.643568 C112.658489,123.621752 111.956105,122.907682 109.982933,123.009395 C109.112058,123.055063 108.247274,123.152625 107.374369,123.171307 C106.233502,123.196216 105.995991,123.416249 106.000051,124.562083 C106.026441,129.50453 106.044711,134.442824 106.069071,139.376968 C106.073131,140.271631 106.075161,141.160068 106.111701,142.052656 C106.162452,143.358325 106.349213,144.639085 106.834386,145.86795 C108.074723,149.008614 110.506676,150.858139 113.421773,152.138899 C117.351875,153.861802 121.355058,153.652147 125.356211,152.429509 C126.084985,152.209476 126.765039,151.927169 127.416673,151.61165 C127.394342,152.543678 127.339532,153.471554 127.191341,154.395279 C126.756919,157.048133 125.317641,158.758581 122.717196,159.418681 C121.436259,159.744579 120.199982,159.715518 118.953554,159.32527 C118.486652,159.184117 118.031929,159.090707 117.711187,159.617956 C116.994593,160.790775 116.564231,162.034171 116.722572,163.451933 C116.909333,165.160305 117.768028,165.974013 119.459027,165.998922 C120.624254,166.015528 121.779331,165.837011 122.928317,165.687554 C126.342796,165.232957 129.263983,163.823498 131.430005,161.00043 C133.252956,158.621579 133.99594,155.848329 134,152.871652 L133.97564,125.161985 Z" id="Shape"></path>
            <path d="M215.749421,84.6086129 C216.525827,85.3753784 217.039291,86.2675006 217.33329,87.3497472 C217.372628,87.5001753 217.418177,87.6422463 217.469938,87.7655137 L217.513416,88.0559236 L217.590022,88.590779 C217.585881,88.6346539 217.58174,88.6827073 217.58174,88.7244929 C217.563107,89.0149027 217.546543,89.3032232 217.517557,89.593633 C217.38091,90.9370395 216.873657,92.1968748 215.973026,93.4420852 C213.146905,97.3344123 209.943969,101.113918 206.846624,104.770157 L206.523639,105.152495 L205.409754,106.462473 C204.045349,108.06495 202.635394,109.71757 201.283412,111.403618 C201.095004,111.633439 200.956286,111.758796 200.494583,111.821474 C192.484136,112.943417 160.427858,117.945151 156.220769,118.553131 C155.077899,117.68817 153.935028,116.814851 152.794228,115.954068 C152.139976,115.463088 151.481583,114.959571 150.829401,114.464412 C150.897725,114.301448 150.957767,114.134306 151.028161,113.967164 C151.601667,112.513025 152.200018,111.000387 152.686566,109.404178 C153.419494,107.009864 153.510592,104.745085 153.479536,102.308986 C155.77977,101.905755 157.56033,101.047061 163.071782,100.073457 C173.703377,98.1993739 188.264625,95.6212034 189.113496,95.4937574 C190.776042,95.2493117 192.010011,93.8056198 192.012081,92.1112144 C192.014151,91.1605924 191.622842,90.2914523 190.993435,89.6625792 C190.500676,89.1757772 189.850565,88.8331354 189.117637,88.7203143 C188.378498,88.6095825 187.606232,88.5719755 186.817403,88.590779 C185.566871,88.6325646 178.17962,89.3742587 167.280941,90.4920231 C171.929029,83.9588471 178.531591,74.655287 179.982954,72.6036149 C184.943675,71.89326 189.894044,71.1661908 194.848553,70.441211 C194.848553,70.441211 194.848553,70.441211 194.850624,70.4433002 C200.128119,74.011789 213.252497,82.7992972 214.496818,83.6099375 C214.966803,83.9149723 215.389168,84.2555248 215.749421,84.6086129 Z M218.120049,82.1641563 C217.585881,81.637658 216.98753,81.1613023 216.327067,80.7288215 C215.099309,79.9286276 202.030833,71.1808158 196.732633,67.5956127 C196.032832,67.1234357 195.306116,66.9124185 194.467596,67.0335966 C189.442693,67.7690229 184.417789,68.5044492 179.397026,69.2231612 C178.498464,69.3506072 177.811086,69.7642845 177.293481,70.4976215 C175.697189,72.7561323 164.939298,87.9075847 161.148363,93.2268895 C160.953744,93.500585 160.765336,93.7659235 160.943392,94.1043867 C160.9848,94.18169 161.03035,94.2401899 161.08004,94.2924218 C161.293293,94.503439 161.585222,94.5097069 161.893714,94.4825462 C163.897878,94.2840647 185.043055,92.0673395 186.914712,92.0067504 C187.475796,91.9900362 188.04102,92.0151076 188.610385,92.100768 C187.303951,92.2929817 155.862587,98.4145696 151.852188,99.1123889 C150.489853,99.3484774 150.017798,99.9355649 150.057136,101.335382 C150.113037,103.710892 150.142023,106.073867 149.43394,108.386699 C148.806603,110.438371 147.957732,112.406472 147.197889,114.405912 C146.893537,115.210285 146.922523,115.638587 147.409071,116.110764 C147.512592,116.213139 147.634747,116.323871 147.785887,116.432513 C149.982601,118.097669 152.173103,119.754467 154.365675,121.423801 C155.003364,121.904335 155.686601,122.079835 156.485783,121.967014 C159.378156,121.538711 192.583516,116.380281 200.956286,115.201928 C202.173691,115.034785 203.124013,114.533358 203.914913,113.545129 C205.598162,111.451672 207.358017,109.418803 209.095098,107.367131 C212.397414,103.474804 215.703871,99.5887445 218.710118,95.4603289 C219.91096,93.8035305 220.683226,91.9900362 220.896479,89.9383641 C220.946169,89.4452942 220.962732,88.9417779 221,88.4403509 C220.910972,87.8490849 220.828155,87.2578189 220.741198,86.6602851 C220.693578,86.5871603 220.619043,86.5140355 220.60455,86.4346429 C220.144917,84.7318804 219.296046,83.3237063 218.120049,82.1641563 Z" id="Shape"></path>
            <circle id="Oval" cx="148.5" cy="124.5" r="1.5"></circle>
            <circle id="Oval" cx="148.5" cy="152.5" r="1.5"></circle>
            <path d="M204.855868,155.755092 C203.286888,147.763306 201.654558,139.773615 200.379102,131.727349 C200.159487,130.344397 199.456297,129.198223 198.30543,128.385215 C194.392483,125.659123 190.54711,122.840835 186.754529,119.949208 C185.924638,119.316403 185.041954,119 184.070581,119 C183.815067,119 183.55533,119.020954 183.287146,119.064957 C181.080439,119.416981 162.385716,122.1305 155.254566,123.159333 C154.610503,123.25572 153.976998,123.375157 153.7785,124.10435 C153.575778,124.839829 154.158603,125.168804 154.625284,125.545973 C155.938751,126.616713 164.706455,133.812254 167.783176,136.332998 C168.442021,136.831699 169.102977,137.332495 169.763934,137.831196 C169.75971,137.835387 169.755487,137.835387 169.744929,137.835387 C169.580217,137.835387 168.230853,137.041237 167.593125,136.565585 C167.126443,136.226134 166.663984,135.874109 166.184633,135.543039 C162.708804,133.131255 155.793045,128.385215 149.789532,124.221691 L149.050443,124.284553 C148.159314,124.284553 147,124.452183 147,125.340625 L147,126.415556 L147,147.95189 L147,151.74034 L147,152.264186 C154.342319,157.793898 162.087969,163.658872 166.509832,167.042913 C168.192842,168.331573 169.953985,169 171.951637,169 C172.319069,169 172.694949,168.974855 173.077163,168.930852 C175.83502,168.610259 191.472027,167.047104 196.531617,166.598692 C201.090739,166.196379 205.899039,161.064789 204.855868,155.755092 Z M200.290411,160.626854 C199.205007,162.055905 197.617022,163.057497 196.238093,163.176934 C191.091924,163.633727 175.378897,165.205264 172.673832,165.525857 C172.430988,165.557288 172.190257,165.56986 171.960083,165.56986 C170.77543,165.56986 169.753375,165.182214 168.629961,164.327299 C164.698008,161.322521 157.446492,155.826335 150.321676,150.45168 L150.321676,128.716285 C155.61144,132.387394 161.331987,136.360238 164.201763,138.359232 C164.488952,138.560389 164.769805,138.763641 165.042212,138.968988 C165.204812,139.088425 165.367412,139.205766 165.527899,139.325203 C167.251032,140.618054 168.665859,141.278099 169.742817,141.278099 C170.82611,141.278099 171.862946,140.773112 172.513344,139.918196 C173.666322,138.407426 173.370687,136.25966 171.854499,135.109295 L170.855674,134.363339 L169.920198,133.6551 C168.691199,132.649317 166.604857,130.931104 164.442495,129.158411 C163.074125,128.037382 161.671968,126.887017 160.44508,125.885425 C168.636296,124.695248 181.96101,122.759115 183.825625,122.45738 C183.912204,122.444808 183.986113,122.436426 184.055799,122.436426 C184.163495,122.436426 184.319759,122.436426 184.630176,122.671109 C188.517783,125.638169 192.439177,128.506747 196.295109,131.195122 C196.677323,131.461235 196.869486,131.779733 196.947618,132.259576 C198.047805,139.19948 199.426733,146.185483 200.761316,152.930517 L201.445501,156.413042 C201.825604,158.256978 200.879571,159.845277 200.290411,160.626854 Z" id="Shape"></path>
        </g>
    </g>
</svg>