<?xml version="1.0" encoding="UTF-8"?>
<svg width="16px" height="10px" viewBox="0 0 16 10" version="1.1" xmlns="http://www.w3.org/2000/svg" xmlns:xlink="http://www.w3.org/1999/xlink">
    <!-- Generator: Sketch 48.2 (47327) - http://www.bohemiancoding.com/sketch -->
    <title>google-plus</title>
    <desc>Created with Sketch.</desc>
    <defs>
        <polygon id="path-1" points="0.00204081633 0.0269520252 0.00204081633 9.99795918 9.97119048 9.99795918 9.97119048 0.0269520252"></polygon>
    </defs>
    <g id="Xəbərlər-(-Daxili-)" stroke="none" stroke-width="1" fill="none" fill-rule="evenodd" transform="translate(-1312.000000, -944.000000)">
        <g id="google-plus" transform="translate(1312.000000, 944.000000)">
            <g id="Group-3">
                <mask id="mask-2" fill="white">
                    <use xlink:href="#path-1"></use>
                </mask>
                <g id="Clip-2"></g>
                <path d="M5.46860544,6.04221088 L7.90377551,6.04221088 C7.47632653,7.25071429 6.31863946,8.11717687 4.96329932,8.10717687 C3.31877551,8.09503401 1.95897959,6.77945578 1.89513605,5.13612245 C1.82670068,3.37459184 3.23993197,1.91969388 4.98653061,1.91969388 C5.78513605,1.91969388 6.51391156,2.22397959 7.06333333,2.72258503 C7.19346939,2.84071429 7.39156463,2.84146259 7.51955782,2.72098639 L8.41397959,1.87918367 C8.55384354,1.74751701 8.55435374,1.52517007 8.41489796,1.39306122 C7.54357143,0.567585034 6.37472789,0.0530612245 5.08578231,0.0278911565 C2.33659864,-0.0257823129 0.0192857143,2.22826531 0.000136054422,4.97792517 C-0.0191836735,7.74823129 2.22071429,10 4.98653061,10 C7.64636054,10 9.81921769,7.91738095 9.9647619,5.29394558 C9.96863946,5.26105442 9.97119048,4.14945578 9.97119048,4.14945578 L5.46860544,4.14945578 C5.28404762,4.14945578 5.13445578,4.29904762 5.13445578,4.48360544 L5.13445578,5.70806122 C5.13445578,5.89261905 5.28408163,6.04221088 5.46860544,6.04221088" id="Fill-1" fill="#FFFFFF" mask="url(#mask-2)"></path>
            </g>
            <path d="M14.3710357,3.30317146 L14.3710357,2.25624693 C14.3710357,2.11471433 14.2276428,2 14.050727,2 L12.949273,2 C12.7723572,2 12.6289643,2.11471433 12.6289643,2.25624693 L12.6289643,3.30317146 L11.3203087,3.30317146 C11.1433929,3.30317146 11,3.41788579 11,3.55941839 L11,4.44058161 C11,4.58211421 11.1433929,4.69682854 11.3203087,4.69682854 L12.6289643,4.69682854 L12.6289643,5.74375307 C12.6289643,5.88528567 12.7723572,6 12.949273,6 L14.050727,6 C14.2276428,6 14.3710357,5.88528567 14.3710357,5.74375307 L14.3710357,4.69682854 L15.6796913,4.69682854 C15.8566071,4.69682854 16,4.58211421 16,4.44058161 L16,3.55941839 C16,3.41788579 15.8566071,3.30317146 15.6796913,3.30317146 L14.3710357,3.30317146" id="Fill-4" fill="#FFFFFF"></path>
        </g>
    </g>
</svg>