<?xml version="1.0" encoding="UTF-8"?>
<svg width="12px" height="11px" viewBox="0 0 12 11" version="1.1" xmlns="http://www.w3.org/2000/svg" xmlns:xlink="http://www.w3.org/1999/xlink">
    <!-- Generator: Sketch 48.2 (47327) - http://www.bohemiancoding.com/sketch -->
    <title>linkedin-logo</title>
    <desc>Created with Sketch.</desc>
    <defs></defs>
    <g id="Rehberlik-(-Rehber-daxili)" stroke="none" stroke-width="1" fill="none" fill-rule="evenodd" transform="translate(-254.000000, -1187.000000)">
        <g id="Group-7" transform="translate(157.000000, 1179.000000)" fill="#FFFFFF" fill-rule="nonzero">
            <g id="Group-6">
                <g id="Group-5" transform="translate(88.000000, 0.000000)">
                    <g id="linkedin-logo" transform="translate(9.000000, 8.000000)">
                        <path d="M12,6.74409127 L12,11 L9.42801145,11 L9.42801145,7.02912638 C9.42801145,6.03161055 9.05600104,5.35084501 8.12502645,5.35084501 C7.4143454,5.35084501 6.99141861,5.8096311 6.80535761,6.25342942 C6.73750631,6.41208559 6.72004129,6.6329142 6.72004129,6.85500071 L6.72004129,11 L4.14718786,11 C4.14718786,11 4.18183889,4.27464343 4.14718786,3.57784634 L6.7197902,3.57784634 L6.7197902,4.62990691 C6.71457301,4.63777549 6.70779346,4.64625963 6.70288317,4.65388733 L6.7197902,4.65388733 L6.7197902,4.62990691 C7.06158557,4.12489964 7.67199622,3.40347979 9.03828493,3.40347979 C10.7310243,3.40345302 12,4.46429214 12,6.74409127 Z M1.45587363,0 C0.57570382,0 0,0.553824556 0,1.28212271 C0,1.9945499 0.559047887,2.56518216 1.42172479,2.56518216 L1.43891081,2.56518216 C2.33612715,2.56518216 2.89411486,1.99465696 2.89411486,1.28212271 C2.87720783,0.553824556 2.33612715,0 1.45587363,0 Z M0.152804934,11 L2.72468189,11 L2.72468189,3.57784634 L0.152804934,3.57784634 L0.152804934,11 Z" id="LinkedIn"></path>
                    </g>
                </g>
            </g>
        </g>
    </g>
</svg>