<?xml version="1.0" encoding="UTF-8"?>
<svg width="28px" height="27px" viewBox="0 0 28 27" version="1.1" xmlns="http://www.w3.org/2000/svg" xmlns:xlink="http://www.w3.org/1999/xlink">
    <!-- Generator: Sketch 48.2 (47327) - http://www.bohemiancoding.com/sketch -->
    <title>Group 6 Copy 2</title>
    <desc>Created with Sketch.</desc>
    <defs>
        <polygon id="path-1" points="0.00516722973 27 27.5585586 27 27.5585586 0 0.00516722973 0"></polygon>
    </defs>
    <g id="Xəbərlər-(-Daxili-)" stroke="none" stroke-width="1" fill="none" fill-rule="evenodd" transform="translate(-116.000000, -470.000000)">
        <g id="Slide-arrow" transform="translate(116.000000, 470.000000)">
            <g id="Group-6-Copy-2" transform="translate(14.000000, 13.500000) rotate(-180.000000) translate(-14.000000, -13.500000) ">
                <g id="Group-3" transform="translate(14.000000, 13.500000) rotate(-180.000000) translate(-14.000000, -13.500000) ">
                    <mask id="mask-2" fill="white">
                        <use xlink:href="#path-1"></use>
                    </mask>
                    <g id="Clip-2"></g>
                    <path d="M13.7789348,0 C6.18147081,0 0,6.05618438 0,13.5 C0,20.9438156 6.18147081,27 13.7789348,27 C21.3770878,27 27.5585586,20.9438156 27.5585586,13.5 C27.5585586,6.05618438 21.3770878,0 13.7789348,0 Z M13.7789348,25.229475 C7.17797106,25.229475 1.80715248,19.9675125 1.80715248,13.5 C1.80715248,7.0324875 7.17797106,1.770525 13.7789348,1.770525 C20.380932,1.770525 25.7514061,7.0324875 25.7514061,13.5 C25.7514061,19.9675125 20.380932,25.229475 13.7789348,25.229475 Z" id="Fill-1" fill="#FFFFFF" mask="url(#mask-2)"></path>
                </g>
                <path d="M18.7489044,7.26568718 C18.4141102,6.91143761 17.8713156,6.91143761 17.5368482,7.26568718 L12.2511365,12.8585602 C12.0902751,13.0287694 12,13.2594033 12,13.4998055 C12,13.7402077 12.0902751,13.9711874 12.2511365,14.1410508 L17.5368482,19.7342696 C17.7044087,19.9112215 17.9236834,20 18.1428763,20 C18.362151,20 18.5819975,19.9112215 18.7489044,19.7342696 C19.0836985,19.3801065 19.0836985,18.8056827 18.7489044,18.4514332 L14.0695475,13.4998055 L18.7489044,8.54852363 C19.0836985,8.19427405 19.0836985,7.61993676 18.7489044,7.26568718 Z" id="Fill-4" fill="#FFFFFF" transform="translate(15.500000, 13.500000) rotate(-180.000000) translate(-15.500000, -13.500000) "></path>
            </g>
        </g>
    </g>
</svg>