<?xml version="1.0" encoding="UTF-8"?>
<svg width="29px" height="29px" viewBox="0 0 29 29" version="1.1" xmlns="http://www.w3.org/2000/svg" xmlns:xlink="http://www.w3.org/1999/xlink">
    <!-- Generator: Sketch 48.2 (47327) - http://www.bohemiancoding.com/sketch -->
    <title>Group 7</title>
    <desc>Created with Sketch.</desc>
    <defs></defs>
    <g id="Home-page" stroke="none" stroke-width="1" fill="none" fill-rule="evenodd" transform="translate(-1091.000000, -38.000000)">
        <g id="Group-7" transform="translate(1091.000000, 38.000000)">
            <circle id="Oval-2-Copy" fill="#FFFFFF" cx="14.5" cy="14.5" r="14.5"></circle>
            <path d="M19.4578927,19.0186071 L16.8405231,16.2967262 C17.513692,15.4961162 17.8824988,14.4891385 17.8824988,13.4408873 C17.8824988,10.9922324 15.8902664,9 13.440646,9 C10.9922324,9 9,10.9922324 9,13.4408873 C9,15.8902664 10.9922324,17.8824988 13.440646,17.8824988 C14.3600079,17.8824988 15.2368895,17.605411 15.9853645,17.0782683 L18.6234915,19.8218721 C18.7337956,19.9370036 18.8817528,20 19.0412955,20 C19.1911836,20 19.333348,19.942555 19.4419625,19.8380436 C19.6729495,19.6164699 19.6794664,19.2495941 19.4578927,19.0186071 Z M13.440646,10.1587967 C15.2508887,10.1587967 16.7237021,11.6316101 16.7237021,13.4408873 C16.7237021,15.25113 15.2508887,16.7237021 13.440646,16.7237021 C11.6313688,16.7237021 10.1587967,15.25113 10.1587967,13.4408873 C10.1587967,11.6316101 11.6313688,10.1587967 13.440646,10.1587967 Z" id="Fill-1" fill="#4B4A4A"></path>
        </g>
    </g>
</svg>