<?xml version="1.0" encoding="UTF-8"?>
<svg width="21px" height="22px" viewBox="0 0 21 22" version="1.1" xmlns="http://www.w3.org/2000/svg" xmlns:xlink="http://www.w3.org/1999/xlink">
    <!-- Generator: Sketch 48.2 (47327) - http://www.bohemiancoding.com/sketch -->
    <title>share (1)</title>
    <desc>Created with Sketch.</desc>
    <defs>
        <polygon id="path-1" points="0 3.24582633e-15 0 22 21 22 21 0"></polygon>
    </defs>
    <g id="Xəbərlər-(-Daxili-)" stroke="none" stroke-width="1" fill="none" fill-rule="evenodd" transform="translate(-1308.000000, -1097.000000)">
        <g id="share-(1)" transform="translate(1308.000000, 1097.000000)">
            <mask id="mask-2" fill="white">
                <use xlink:href="#path-1"></use>
            </mask>
            <g id="Clip-2"></g>
            <path d="M17.0127065,14.1336842 C15.7314255,14.1336842 14.589027,14.7365585 13.8581879,15.6684498 L7.73856756,12.2927993 C7.88196003,11.8861818 7.96059461,11.4476447 7.96059461,10.9953463 C7.96059461,10.5385368 7.88196003,10.104682 7.73405764,9.69361064 L13.8489368,6.32218563 C14.5750346,7.25875919 15.7224056,7.86637286 17.0081966,7.86637286 C19.200598,7.86637286 20.9907489,6.10291709 20.9907489,3.93307223 C20.9907489,1.76322736 19.2053392,0 17.0081966,0 C14.811054,0 13.0256443,1.76322736 13.0256443,3.93307223 C13.0256443,4.38988167 13.1042789,4.82841874 13.2521813,5.23503625 L7.14186988,8.60623285 C6.41571425,7.66514829 5.26857453,7.06227403 3.98255226,7.06227403 C1.79015085,7.06227403 0,8.82550139 0,10.9953463 C0,13.1651911 1.79015085,14.9285898 3.98729347,14.9285898 C5.27308445,14.9285898 6.42022417,14.3210332 7.15112101,13.3799487 L13.2661736,16.7558276 C13.11804,17.1669561 13.0348955,17.6098899 13.0348955,18.0666994 C13.0348955,20.2320903 14.8203051,22 17.0174477,22 C19.2145903,22 21,20.2365442 21,18.0666994 C21,15.8968545 19.2098491,14.1336842 17.0127065,14.1336842 Z M17.0127065,1.2379536 C18.5207558,1.2379536 19.7465301,2.44844153 19.7465301,3.93775452 C19.7465301,5.42683911 18.5207558,6.63732704 17.0127065,6.63732704 C15.5048885,6.63732704 14.279172,5.42683911 14.279172,3.93775452 C14.279172,2.44844153 15.5093984,1.2379536 17.0127065,1.2379536 Z M3.98729347,13.6951472 C2.47924416,13.6951472 1.25352768,12.4846592 1.25352768,10.9953463 C1.25352768,9.50620456 2.47924416,8.29571663 3.98729347,8.29571663 C5.4951115,8.29571663 6.72082798,9.50620456 6.72082798,10.9953463 C6.72082798,12.4846592 5.49060157,13.6951472 3.98729347,13.6951472 Z M17.0127065,20.7621035 C15.5048885,20.7621035 14.279172,19.5513301 14.279172,18.0622455 C14.279172,16.5729325 15.5048885,15.3624446 17.0127065,15.3624446 C18.5207558,15.3624446 19.7465301,16.5729325 19.7465301,18.0622455 C19.7465301,19.5513301 18.5207558,20.7621035 17.0127065,20.7621035 Z" id="Fill-1" fill="#FFFFFF" mask="url(#mask-2)"></path>
        </g>
    </g>
</svg>