<?xml version="1.0" encoding="UTF-8"?>
<svg width="11px" height="9px" viewBox="0 0 11 9" version="1.1" xmlns="http://www.w3.org/2000/svg" xmlns:xlink="http://www.w3.org/1999/xlink">
    <!-- Generator: Sketch 48.2 (47327) - http://www.bohemiancoding.com/sketch -->
    <title>twitter-logo-silhouette</title>
    <desc>Created with Sketch.</desc>
    <defs></defs>
    <g id="Menyu" stroke="none" stroke-width="1" fill="none" fill-rule="evenodd" transform="translate(-130.000000, -468.000000)">
        <g id="Group-9" transform="translate(116.000000, 453.000000)" fill="#8E99A9">
            <path d="M25,16.0646278 C24.5969846,16.2446624 24.1604562,16.3693018 23.7041637,16.4238315 C24.1707679,16.1425274 24.5265214,15.6967686 24.6975236,15.1653203 C24.2609952,15.4258511 23.7780642,15.6154068 23.2607609,15.7166763 C22.8517303,15.2769763 22.2639638,15 21.6160456,15 C20.3709085,15 19.3603625,16.0178881 19.3603625,17.2720716 C19.3603625,17.4512406 19.3809859,17.6234853 19.4179361,17.7896711 C17.5412077,17.6944605 15.8801656,16.7916907 14.7656433,15.4154645 C14.5705804,15.7504328 14.4597297,16.1425274 14.4597297,16.5588575 C14.4597297,17.3465089 14.8593079,18.0432776 15.4634013,18.4483555 C15.0938989,18.4388344 14.7484572,18.3341027 14.4434029,18.1644547 L14.4434029,18.1921523 C14.4434029,19.2939988 15.2219358,20.2132141 16.2522459,20.423543 C16.0640575,20.473745 15.8629795,20.500577 15.6584642,20.500577 C15.5141005,20.500577 15.373174,20.4875938 15.2322475,20.4607617 C15.5209749,21.3635314 16.3527849,22.0187536 17.3401297,22.0395268 C16.5676119,22.6480092 15.5940161,23.0098096 14.5370674,23.0098096 C14.3557535,23.0098096 14.1778767,22.999423 14,22.9795153 C15.0002344,23.6252164 16.1852199,24 17.4604328,24 C21.6091712,24 23.8786032,20.5377957 23.8786032,17.5360646 L23.8717288,17.2417773 C24.3151316,16.9206578 24.6975236,16.5216388 25,16.0646278 Z" id="twitter-logo-silhouette"></path>
        </g>
    </g>
</svg>