<?xml version="1.0" encoding="UTF-8"?>
<svg width="13px" height="11px" viewBox="0 0 13 11" version="1.1" xmlns="http://www.w3.org/2000/svg" xmlns:xlink="http://www.w3.org/1999/xlink">
    <!-- Generator: Sketch 48.2 (47327) - http://www.bohemiancoding.com/sketch -->
    <title>twitter-logo-silhouette</title>
    <desc>Created with Sketch.</desc>
    <defs></defs>
    <g id="Rehberlik-(-Rehber-daxili)" stroke="none" stroke-width="1" fill="none" fill-rule="evenodd" transform="translate(-165.000000, -1188.000000)">
        <g id="Group-7" transform="translate(157.000000, 1179.000000)" fill="#FFFFFF">
            <g id="Group-6">
                <g id="Group-2">
                    <g id="Group-9">
                        <path d="M20.972166,10.9676419 C20.525875,11.1650346 20.0424724,11.3016911 19.5371835,11.3614784 C20.0538914,11.0530522 20.4478455,10.5643155 20.6372099,9.98162735 C20.1538073,10.2672774 19.6190194,10.4751091 19.0461683,10.5861425 C18.5932163,10.1040488 17.9423356,9.80036769 17.2248444,9.80036769 C15.8460052,9.80036769 14.7269472,10.9163957 14.7269472,12.2915017 C14.7269472,12.4879454 14.7497851,12.6767971 14.7907031,12.8590058 C12.7124526,12.7546154 10.8730487,11.7648048 9.63884958,10.2558893 C9.42284095,10.6231537 9.30008714,11.0530522 9.30008714,11.5095229 C9.30008714,12.373116 9.74257179,13.1370638 10.4115324,13.5811974 C10.0023531,13.5707584 9.61981798,13.4559289 9.28200712,13.2699243 L9.28200712,13.3002924 C9.28200712,14.5083738 10.1441385,15.5162154 11.2850828,15.7468233 C11.0766868,15.8018655 10.8540171,15.8312846 10.6275411,15.8312846 C10.4676757,15.8312846 10.3116166,15.8170495 10.1555575,15.7876304 C10.4752883,16.777441 11.3964176,17.4958366 12.4897829,17.5186127 C11.6343126,18.1857621 10.5561726,18.5824455 9.38572933,18.5824455 C9.18494597,18.5824455 8.98796894,18.5710575 8.7909919,18.5492304 C9.89863089,19.257187 11.2108595,19.6681055 12.6230041,19.6681055 C17.2172318,19.6681055 19.7303542,15.8720917 19.7303542,12.5809478 L19.7227416,12.2582866 C20.2137568,11.9062063 20.6372099,11.4687157 20.972166,10.9676419 Z" id="twitter-logo-silhouette"></path>
                    </g>
                </g>
            </g>
        </g>
    </g>
</svg>